<?xml version="1.0" standalone="no"?>
<!DOCTYPE svg PUBLIC "-//W3C//DTD SVG 20010904//EN"
 "http://www.w3.org/TR/2001/REC-SVG-20010904/DTD/svg10.dtd">
<svg version="1.0" xmlns="http://www.w3.org/2000/svg"
 width="2543.000000pt" height="1250.000000pt" viewBox="0 0 2543.000000 1250.000000"
 preserveAspectRatio="xMidYMid meet">

<g transform="translate(0.000000,1250.000000) scale(0.100000,-0.100000)"
fill="#000000" stroke="none">
<path d="M117 12302 c-15 -16 -17 -48 -17 -234 0 -195 2 -216 18 -231 16 -15
48 -17 234 -17 195 0 216 2 231 18 15 16 17 48 17 234 0 195 -2 216 -18 231
-16 15 -48 17 -234 17 -195 0 -216 -2 -231 -18z m243 -122 c0 -11 -4 -20 -10
-20 -5 0 -10 9 -10 20 0 11 5 20 10 20 6 0 10 -9 10 -20z m-70 -35 c0 -8 -7
-15 -15 -15 -8 0 -15 7 -15 15 0 8 7 15 15 15 8 0 15 -7 15 -15z m150 6 c0
-12 -20 -25 -27 -18 -7 7 6 27 18 27 5 0 9 -4 9 -9z m-43 -33 c29 -27 29 -65
1 -95 -27 -29 -65 -29 -95 -1 -29 27 -29 65 -1 95 27 29 65 29 95 1z m-137
-48 c0 -5 -9 -10 -20 -10 -11 0 -20 5 -20 10 0 6 9 10 20 10 11 0 20 -4 20
-10z m220 0 c0 -5 -9 -10 -20 -10 -11 0 -20 5 -20 10 0 6 9 10 20 10 11 0 20
-4 20 -10z m-190 -75 c0 -8 -7 -15 -15 -15 -16 0 -20 12 -8 23 11 12 23 8 23
-8z m148 -4 c3 -8 -1 -12 -9 -9 -7 2 -15 10 -17 17 -3 8 1 12 9 9 7 -2 15 -10
17 -17z m-78 -31 c0 -11 -4 -20 -10 -20 -5 0 -10 9 -10 20 0 11 5 20 10 20 6
0 10 -9 10 -20z"/>
<path d="M320 12095 c-26 -32 13 -81 48 -59 34 22 22 74 -18 74 -10 0 -23 -7
-30 -15z"/>
<path d="M22137 12252 c-14 -16 -17 -44 -17 -184 0 -147 2 -167 18 -181 17
-16 90 -17 844 -17 786 0 826 1 841 18 14 16 17 44 17 184 0 147 -2 167 -18
181 -17 16 -90 17 -844 17 -786 0 -826 -1 -841 -18z m253 -146 c0 -9 -7 -12
-20 -9 -29 8 -25 -12 5 -25 27 -13 32 -31 13 -50 -17 -17 -58 -15 -58 2 0 9 7
12 20 9 28 -7 25 4 -7 31 -24 20 -25 26 -14 40 17 20 61 21 61 2z m100 4 c0
-5 -7 -10 -15 -10 -11 0 -15 -12 -15 -45 0 -33 -4 -45 -15 -45 -11 0 -15 12
-15 45 0 33 -4 45 -15 45 -8 0 -15 5 -15 10 0 6 20 10 45 10 25 0 45 -4 45
-10z m81 -45 c23 -60 22 -55 4 -55 -8 0 -15 5 -15 10 0 6 -11 10 -25 10 -14 0
-25 -4 -25 -10 0 -5 -7 -10 -15 -10 -18 0 -18 0 -1 41 7 19 16 42 19 52 12 32
38 14 58 -38z m106 39 c3 -9 2 -24 -4 -33 -7 -11 -6 -22 5 -38 13 -20 13 -23
-1 -23 -8 0 -22 10 -30 23 l-16 22 0 -22 c-1 -14 -7 -23 -16 -23 -12 0 -15 13
-15 55 l0 55 35 0 c24 0 38 -5 42 -16z m103 6 c0 -5 -7 -10 -15 -10 -11 0 -15
-12 -15 -45 0 -33 -4 -45 -15 -45 -11 0 -15 12 -15 45 0 33 -4 45 -15 45 -8 0
-15 5 -15 10 0 6 20 10 45 10 25 0 45 -4 45 -10z m80 -45 c0 -42 -3 -55 -15
-55 -12 0 -15 13 -15 55 0 42 3 55 15 55 12 0 15 -13 15 -55z m70 23 l20 -33
0 33 c0 22 5 32 15 32 12 0 15 -13 15 -55 0 -65 -17 -73 -49 -22 l-21 32 0
-32 c0 -23 -5 -33 -15 -33 -12 0 -15 13 -15 55 0 65 19 74 50 23z m150 22 c0
-5 -7 -10 -15 -10 -11 0 -15 -12 -15 -45 0 -33 -4 -45 -15 -45 -11 0 -15 12
-15 45 0 33 -4 45 -15 45 -8 0 -15 5 -15 10 0 6 20 10 45 10 25 0 45 -4 45
-10z m70 0 c0 -5 -7 -10 -15 -10 -8 0 -15 -4 -15 -10 0 -5 7 -10 15 -10 8 0
15 -4 15 -10 0 -5 -7 -10 -15 -10 -8 0 -15 -7 -15 -15 0 -8 9 -15 20 -15 11 0
20 -4 20 -10 0 -5 -16 -10 -35 -10 l-35 0 0 55 c0 54 0 55 30 55 17 0 30 -4
30 -10z m97 -6 c3 -9 2 -24 -4 -33 -7 -11 -6 -22 5 -38 13 -20 13 -23 -1 -23
-8 0 -22 10 -30 23 l-16 22 0 -22 c-1 -14 -7 -23 -16 -23 -12 0 -15 13 -15 55
l0 55 35 0 c24 0 38 -5 42 -16z m50 -14 c3 -16 9 -30 13 -30 5 0 11 14 15 30
4 17 13 30 22 30 9 0 13 -6 10 -14 -3 -8 -11 -32 -18 -55 -8 -27 -18 -41 -29
-41 -11 0 -21 14 -29 41 -7 23 -15 47 -18 55 -3 8 1 14 11 14 10 0 19 -11 23
-30z m103 -25 c0 -42 -3 -55 -15 -55 -12 0 -15 13 -15 55 0 42 3 55 15 55 12
0 15 -13 15 -55z m80 45 c0 -5 -7 -10 -15 -10 -8 0 -15 -4 -15 -10 0 -5 7 -10
15 -10 8 0 15 -4 15 -10 0 -5 -7 -10 -15 -10 -8 0 -15 -7 -15 -15 0 -8 9 -15
20 -15 11 0 20 -4 20 -10 0 -5 -16 -10 -35 -10 l-35 0 0 55 c0 54 0 55 30 55
17 0 30 -4 30 -10z m47 -27 l9 -38 8 38 c9 47 37 48 47 2 l6 -30 8 33 c4 17
14 32 21 32 14 0 14 -5 -6 -80 -10 -38 -37 -37 -46 2 l-7 33 -10 -33 c-12 -39
-37 -40 -47 -2 -20 76 -20 80 -6 80 8 0 18 -16 23 -37z"/>
<path d="M22527 12070 c-3 -12 0 -20 8 -20 8 0 11 8 8 20 -3 11 -7 20 -8 20
-1 0 -5 -9 -8 -20z"/>
<path d="M22630 12085 c0 -8 5 -15 10 -15 6 0 10 7 10 15 0 8 -4 15 -10 15 -5
0 -10 -7 -10 -15z"/>
<path d="M23200 12085 c0 -8 5 -15 10 -15 6 0 10 7 10 15 0 8 -4 15 -10 15 -5
0 -10 -7 -10 -15z"/>
<path d="M21267 12173 c-17 -16 -5 -49 24 -66 38 -21 33 -42 -9 -42 -18 0 -32
-3 -32 -7 0 -14 57 -8 69 6 16 19 -1 52 -29 61 -31 10 -25 43 8 48 l27 4 -26
2 c-14 0 -29 -2 -32 -6z"/>
<path d="M21350 12170 c0 -5 5 -10 10 -10 6 0 10 5 10 10 0 6 -4 10 -10 10 -5
0 -10 -4 -10 -10z"/>
<path d="M2322 12128 c-21 -21 -13 -47 18 -63 35 -18 30 -39 -6 -32 -16 3 -24
0 -24 -9 0 -14 36 -19 64 -8 26 10 20 53 -9 66 -14 6 -25 18 -25 26 0 10 8 13
25 10 17 -4 25 -1 25 8 0 17 -51 19 -68 2z"/>
<path d="M2410 12075 c0 -51 3 -65 15 -65 11 0 15 12 16 43 l1 42 15 -43 c8
-24 20 -41 26 -39 6 2 18 23 26 48 l16 44 3 -47 c5 -72 22 -58 22 18 0 56 -2
65 -17 62 -9 -2 -23 -22 -31 -48 -16 -48 -16 -47 -42 23 -6 17 -17 27 -30 27
-18 0 -20 -6 -20 -65z"/>
<path d="M2595 12088 c-10 -29 -20 -59 -23 -65 -2 -7 3 -13 12 -13 9 0 16 7
16 15 0 9 9 15 25 15 14 0 28 -7 31 -15 4 -8 12 -15 19 -15 10 0 8 16 -8 65
-27 82 -46 85 -72 13z m45 -9 c0 -11 -7 -19 -16 -19 -11 0 -14 5 -10 16 3 9 6
20 6 25 0 6 5 7 10 4 6 -3 10 -15 10 -26z"/>
<path d="M2710 12076 c0 -37 4 -66 10 -66 6 0 10 11 10 25 0 14 4 25 9 25 5 0
16 -11 25 -25 9 -14 23 -25 32 -25 13 0 12 5 -5 28 -14 20 -17 32 -10 39 6 6
9 21 7 34 -2 20 -10 25 -40 27 l-38 3 0 -65z m55 24 c0 -8 -8 -16 -17 -18 -13
-2 -18 3 -18 18 0 15 5 20 18 18 9 -2 17 -10 17 -18z"/>
<path d="M2800 12130 c0 -5 9 -10 20 -10 18 0 20 -7 20 -55 0 -42 3 -55 15
-55 12 0 15 13 15 55 0 42 3 55 15 55 8 0 15 5 15 10 0 6 -22 10 -50 10 -27 0
-50 -4 -50 -10z"/>
<path d="M2920 12075 c0 -37 4 -65 10 -65 6 0 10 28 10 65 0 37 -4 65 -10 65
-6 0 -10 -28 -10 -65z"/>
<path d="M2983 12075 c26 -79 43 -81 68 -10 21 60 23 78 7 73 -6 -2 -18 -26
-26 -54 l-15 -49 -15 53 c-8 28 -20 52 -27 52 -10 0 -8 -17 8 -65z"/>
<path d="M21350 12095 c0 -25 5 -45 10 -45 6 0 10 20 10 45 0 25 -4 45 -10 45
-5 0 -10 -20 -10 -45z"/>
<path d="M21402 12128 c-26 -26 -7 -79 28 -77 9 0 6 4 -7 9 -37 15 -25 76 13
68 16 -3 19 -12 19 -53 0 -47 -2 -50 -30 -56 -28 -6 -28 -7 -4 -8 37 -2 49 17
49 74 0 48 -1 51 -28 53 -15 1 -33 -3 -40 -10z"/>
<path d="M21501 12091 l2 -46 6 40 c5 31 10 40 26 40 16 0 21 -9 26 -40 l7
-40 -2 45 c-1 44 -2 45 -33 46 -33 1 -33 1 -32 -45z"/>
<path d="M21653 12095 c0 -27 2 -38 4 -22 2 15 2 37 0 50 -2 12 -4 0 -4 -28z"/>
<path d="M21691 12090 l2 -45 6 40 c5 31 10 40 26 40 16 0 21 -9 26 -40 l6
-40 2 36 c1 41 -14 59 -47 56 -19 -1 -22 -7 -21 -47z"/>
<path d="M21905 9099 c-27 -5 -98 -16 -158 -24 -59 -8 -116 -19 -127 -25 -29
-16 -33 -45 -12 -93 20 -45 53 -74 109 -96 44 -18 70 -49 96 -117 27 -69 46
-77 96 -40 27 20 38 23 53 15 36 -19 40 -55 14 -117 -27 -63 -24 -82 21 -140
31 -41 80 -72 114 -72 15 0 36 11 51 28 65 68 148 294 148 400 0 73 -29 132
-99 203 -83 83 -163 103 -306 78z"/>
<path d="M17310 8853 c-31 -11 -67 -38 -116 -87 -105 -106 -161 -220 -190
-384 -8 -46 -23 -100 -33 -120 -22 -43 -102 -119 -225 -216 -94 -73 -162 -155
-205 -246 -22 -48 -26 -68 -26 -160 0 -99 2 -109 33 -172 31 -64 113 -153 134
-146 5 2 26 55 47 118 84 252 160 410 228 470 62 54 159 88 326 115 44 7 52
22 67 124 8 60 7 70 -15 116 -13 27 -25 67 -27 88 -3 38 -2 39 49 56 84 28
168 98 253 209 24 30 27 31 48 16 28 -20 68 -97 87 -171 12 -44 13 -74 5 -137
-15 -132 -34 -166 -93 -166 -21 0 -25 -6 -31 -46 -3 -26 -6 -62 -6 -80 0 -31
3 -34 43 -44 69 -18 160 -51 194 -72 l32 -19 11 40 c51 192 18 490 -79 697
-70 148 -136 198 -298 223 -95 15 -158 13 -213 -6z"/>
<path d="M7322 8028 c-7 -7 -12 -17 -12 -24 0 -19 32 -26 48 -10 13 12 13 18
2 30 -15 19 -22 20 -38 4z"/>
<path d="M8090 7870 l0 -170 25 0 25 0 0 170 0 170 -25 0 -25 0 0 -170z"/>
<path d="M8210 7870 l0 -170 25 0 25 0 0 170 0 170 -25 0 -25 0 0 -170z"/>
<path d="M8341 8030 c-19 -11 -9 -45 14 -45 13 0 21 8 23 21 3 23 -17 37 -37
24z"/>
<path d="M9512 8028 c-7 -7 -12 -17 -12 -24 0 -19 32 -26 48 -10 13 12 13 18
2 30 -15 19 -22 20 -38 4z"/>
<path d="M10700 8024 c-11 -12 -11 -18 2 -30 16 -16 48 -9 48 10 0 13 -20 36
-31 36 -4 0 -12 -7 -19 -16z"/>
<path d="M4970 8002 c-76 -37 -63 -105 29 -157 72 -40 84 -60 51 -87 -25 -20
-67 -21 -113 -3 -16 7 -18 4 -15 -16 6 -48 127 -51 174 -4 46 46 24 99 -61
144 -66 35 -77 56 -45 83 20 16 33 19 72 14 43 -6 48 -5 48 12 0 35 -83 43
-140 14z"/>
<path d="M6150 7860 l0 -160 30 0 30 0 0 160 0 160 -30 0 -30 0 0 -160z"/>
<path d="M6309 7860 c54 -155 56 -160 83 -160 15 0 28 2 28 3 0 2 25 73 55
158 30 85 55 155 55 156 0 2 -11 3 -24 3 -23 0 -28 -11 -67 -130 -24 -71 -46
-126 -50 -122 -4 4 -24 62 -45 130 -36 116 -39 122 -64 122 l-27 0 56 -160z"/>
<path d="M6023 7989 c-16 -6 -23 -17 -23 -34 0 -18 -5 -25 -20 -25 -13 0 -20
-7 -20 -20 0 -13 7 -20 20 -20 18 0 20 -7 20 -75 0 -86 20 -119 68 -113 35 4
42 35 10 40 -21 3 -23 8 -26 76 -3 71 -3 72 23 72 18 0 25 5 25 20 0 15 -7 20
-24 20 -21 0 -25 5 -28 34 -3 30 -5 33 -25 25z"/>
<path d="M9253 7989 c-16 -6 -23 -17 -23 -34 0 -16 -6 -25 -15 -25 -8 0 -15
-9 -15 -20 0 -11 7 -20 15 -20 12 0 15 -14 15 -64 0 -103 24 -137 86 -122 32
8 32 36 0 36 -30 0 -36 16 -36 91 0 59 0 59 30 59 23 0 30 4 30 20 0 15 -7 20
-29 20 -26 0 -30 4 -33 34 -3 30 -5 33 -25 25z"/>
<path d="M7717 7983 c-4 -3 -7 -17 -7 -30 0 -16 -6 -23 -20 -23 -13 0 -20 -7
-20 -20 0 -13 7 -20 20 -20 18 0 20 -7 20 -80 0 -73 2 -81 24 -96 30 -19 70
-15 74 8 2 11 -5 18 -20 20 -21 3 -23 8 -26 76 -3 71 -3 72 23 72 18 0 25 5
25 20 0 15 -7 20 -25 20 -21 0 -25 5 -25 30 0 22 -5 30 -18 30 -10 0 -22 -3
-25 -7z"/>
<path d="M9907 7983 c-4 -3 -7 -17 -7 -30 0 -16 -6 -23 -20 -23 -13 0 -20 -7
-20 -20 0 -13 7 -20 20 -20 18 0 20 -7 20 -80 0 -73 2 -81 24 -96 30 -19 70
-15 74 8 2 11 -5 18 -20 20 -21 3 -23 8 -26 76 -3 71 -3 72 23 72 18 0 25 5
25 20 0 15 -7 20 -25 20 -21 0 -25 5 -25 30 0 22 -5 30 -18 30 -10 0 -22 -3
-25 -7z"/>
<path d="M5170 7815 l0 -115 25 0 c24 0 25 2 25 73 0 83 16 117 56 117 32 0
44 -32 44 -121 0 -67 1 -69 25 -69 24 0 25 2 25 76 0 87 11 114 45 114 34 0
45 -27 45 -114 0 -75 0 -76 26 -76 l26 0 -4 96 c-3 86 -5 98 -27 115 -30 25
-62 24 -94 -1 l-26 -21 -21 21 c-26 26 -60 26 -94 -1 l-26 -20 0 20 c0 16 -6
21 -25 21 l-25 0 0 -115z"/>
<path d="M5603 7920 c-14 -6 -23 -18 -23 -32 0 -17 3 -19 12 -10 20 20 86 15
98 -8 9 -17 6 -20 -27 -25 -84 -14 -103 -29 -103 -80 0 -37 28 -65 65 -65 11
0 31 7 43 16 20 14 22 14 22 0 0 -10 9 -16 25 -16 25 0 25 0 25 94 0 90 -1 96
-26 115 -28 22 -73 26 -111 11z m92 -127 c-10 -40 -24 -53 -57 -53 -55 0 -48
59 8 71 54 12 57 11 49 -18z"/>
<path d="M5810 7815 l0 -115 25 0 c24 0 25 2 25 74 0 82 13 106 56 106 21 0
25 4 22 22 -4 30 -32 34 -57 9 -21 -21 -21 -21 -21 -1 0 15 -7 20 -25 20 l-25
0 0 -115z"/>
<path d="M6730 7921 c-16 -4 -26 -15 -28 -30 -3 -20 -1 -21 17 -12 29 16 77
13 91 -4 17 -20 12 -23 -44 -34 -60 -11 -86 -35 -86 -77 0 -59 63 -83 114 -43
l26 20 0 -20 c0 -16 6 -21 25 -21 24 0 25 2 25 74 0 40 -5 88 -11 105 -16 46
-62 61 -129 42z m90 -123 c0 -48 -62 -77 -91 -42 -24 29 10 56 79 63 6 0 12
-9 12 -21z"/>
<path d="M6930 7815 l0 -115 25 0 c25 0 25 1 25 79 0 87 12 111 55 111 34 0
45 -27 45 -114 0 -74 1 -76 25 -76 24 0 25 2 25 74 0 40 -5 87 -11 105 -19 53
-67 66 -113 30 l-26 -20 0 20 c0 16 -6 21 -25 21 l-25 0 0 -115z"/>
<path d="M7310 7815 l0 -115 25 0 25 0 0 115 0 115 -25 0 -25 0 0 -115z"/>
<path d="M7430 7815 l0 -115 25 0 c25 0 25 1 25 78 0 84 14 112 56 112 36 0
44 -20 44 -107 0 -83 0 -83 26 -83 l26 0 -4 96 c-3 86 -5 98 -27 115 -30 25
-62 24 -95 -2 l-26 -20 0 20 c0 16 -6 21 -25 21 l-25 0 0 -115z"/>
<path d="M7903 7920 c-29 -12 -63 -67 -63 -103 0 -55 25 -95 68 -108 49 -14
115 -1 120 23 3 14 -4 16 -51 11 -49 -5 -56 -3 -71 18 -30 43 -22 49 59 49
l75 0 0 29 c0 61 -77 107 -137 81z m87 -49 c15 -30 14 -31 -45 -31 -57 0 -66
8 -39 34 22 23 71 20 84 -3z"/>
<path d="M8330 7815 l0 -115 25 0 25 0 0 115 0 115 -25 0 -25 0 0 -115z"/>
<path d="M8494 7920 c-74 -30 -83 -169 -14 -205 39 -20 62 -19 94 6 l26 20 0
-30 c0 -42 -31 -71 -76 -71 -19 0 -44 5 -55 10 -16 9 -19 7 -19 -14 0 -22 6
-26 45 -32 64 -9 115 12 137 56 14 27 18 61 18 153 l0 117 -25 0 c-15 0 -25
-6 -25 -14 0 -13 -4 -13 -27 0 -31 16 -48 17 -79 4z m88 -47 c23 -21 24 -89 1
-115 -37 -41 -103 -9 -103 50 0 67 58 105 102 65z"/>
<path d="M8754 7911 c-57 -35 -68 -127 -21 -178 41 -45 149 -40 155 8 3 19 1
22 -9 12 -21 -21 -86 -16 -110 8 -33 33 -19 44 64 47 l77 3 -6 27 c-18 86 -80
116 -150 73z m100 -43 c15 -24 5 -30 -53 -26 l-52 3 17 23 c19 27 71 27 88 0z"/>
<path d="M8960 7815 l0 -115 25 0 c25 0 25 1 25 85 0 75 2 85 21 95 29 16 65
5 73 -22 3 -13 6 -53 6 -90 0 -67 0 -68 26 -68 l27 0 -6 89 c-3 50 -10 99 -16
110 -15 28 -63 36 -100 16 -28 -14 -31 -14 -31 0 0 9 -9 15 -25 15 l-25 0 0
-115z"/>
<path d="M9500 7815 l0 -115 25 0 25 0 0 115 0 115 -25 0 -25 0 0 -115z"/>
<path d="M9620 7815 l0 -115 25 0 c25 0 25 1 25 78 0 84 14 112 56 112 36 0
44 -20 44 -107 0 -83 0 -83 26 -83 l26 0 -4 96 c-3 86 -5 98 -27 115 -30 25
-62 24 -95 -2 l-26 -20 0 20 c0 16 -6 21 -25 21 l-25 0 0 -115z"/>
<path d="M10093 7920 c-29 -12 -63 -67 -63 -103 0 -55 25 -95 68 -108 49 -14
115 -1 120 23 3 14 -4 16 -51 11 -49 -5 -56 -3 -71 18 -30 43 -22 49 59 49
l75 0 0 29 c0 61 -77 107 -137 81z m87 -49 c15 -30 14 -31 -45 -31 -57 0 -66
8 -39 34 22 23 71 20 84 -3z"/>
<path d="M10280 7815 l0 -115 25 0 c24 0 25 3 25 63 0 76 16 111 53 115 21 3
27 9 27 28 0 32 -24 31 -55 -2 l-25 -27 0 27 c0 21 -5 26 -25 26 l-25 0 0
-115z"/>
<path d="M10445 7913 c4 -10 23 -62 42 -116 34 -92 37 -98 62 -95 20 2 29 12
42 48 9 25 29 75 43 113 l25 67 -24 0 c-20 0 -27 -10 -50 -82 -15 -46 -30 -86
-34 -90 -4 -4 -19 33 -34 82 -25 83 -29 90 -53 90 -21 0 -25 -4 -19 -17z"/>
<path d="M10700 7815 l0 -115 25 0 25 0 0 115 0 115 -25 0 -25 0 0 -115z"/>
<path d="M10863 7920 c-29 -12 -63 -67 -63 -103 0 -55 25 -95 68 -108 49 -14
115 -1 120 23 3 14 -4 16 -51 11 -49 -5 -56 -3 -71 18 -30 43 -22 49 59 49
l75 0 0 29 c0 61 -77 107 -137 81z m87 -49 c15 -30 14 -31 -45 -31 -57 0 -66
8 -39 34 22 23 71 20 84 -3z"/>
<path d="M11030 7924 c0 -3 14 -54 32 -115 28 -98 33 -109 54 -109 20 0 26 10
44 73 12 39 24 79 27 87 3 8 15 -23 27 -70 20 -77 24 -85 47 -88 24 -3 27 2
57 105 18 59 32 111 32 116 0 4 -9 7 -20 7 -20 0 -20 -1 -53 -130 -15 -60 -14
-62 -42 58 -15 63 -20 72 -40 72 -20 0 -25 -10 -46 -90 -13 -49 -26 -84 -30
-77 -4 6 -15 47 -25 90 -16 69 -20 77 -41 77 -13 0 -23 -3 -23 -6z"/>
<path d="M5980 7524 c-11 -12 -11 -18 2 -30 16 -16 48 -9 48 10 0 13 -20 36
-31 36 -4 0 -12 -7 -19 -16z"/>
<path d="M6920 7370 l0 -170 25 0 25 0 0 170 0 170 -25 0 -25 0 0 -170z"/>
<path d="M7490 7527 c-18 -9 -28 -25 -34 -55 -7 -30 -15 -42 -28 -42 -11 0
-18 -7 -18 -20 0 -13 7 -20 20 -20 19 0 20 -7 20 -95 0 -95 0 -95 25 -95 25 0
25 0 25 95 0 95 0 95 25 95 18 0 25 5 25 20 0 15 -7 20 -25 20 -19 0 -25 5
-25 23 0 28 17 47 42 47 11 0 18 7 18 20 0 24 -31 27 -70 7z"/>
<path d="M5837 7483 c-4 -3 -7 -17 -7 -30 0 -16 -6 -23 -20 -23 -13 0 -20 -7
-20 -20 0 -13 7 -20 20 -20 18 0 20 -7 20 -80 0 -73 2 -81 24 -96 30 -19 70
-15 74 8 2 11 -5 18 -20 20 -21 3 -23 8 -26 76 -3 71 -3 72 23 72 18 0 25 5
25 20 0 15 -7 20 -25 20 -21 0 -25 5 -25 30 0 22 -5 30 -18 30 -10 0 -22 -3
-25 -7z"/>
<path d="M7297 7483 c-4 -3 -7 -17 -7 -30 0 -16 -6 -23 -20 -23 -13 0 -20 -7
-20 -20 0 -13 7 -20 20 -20 18 0 20 -7 20 -80 0 -73 2 -81 24 -96 30 -19 70
-15 74 8 2 11 -5 18 -20 20 -21 3 -23 8 -26 76 -3 71 -3 72 23 72 18 0 25 5
25 20 0 15 -7 20 -25 20 -21 0 -25 5 -25 30 0 22 -5 30 -18 30 -10 0 -22 -3
-25 -7z"/>
<path d="M4930 7265 l0 -165 25 0 c24 0 25 2 25 64 l0 64 31 -15 c67 -33 133
19 133 106 0 63 -23 98 -70 107 -28 5 -42 2 -65 -15 -29 -21 -29 -21 -29 -1 0
15 -7 20 -25 20 l-25 0 0 -165z m158 92 c15 -31 8 -79 -15 -102 -19 -20 -57
-19 -77 1 -22 21 -21 92 1 116 26 28 74 20 91 -15z"/>
<path d="M5200 7315 l0 -115 25 0 c24 0 25 2 25 73 0 80 15 107 58 107 15 0
22 6 22 20 0 34 -30 37 -57 6 l-23 -27 0 25 c0 21 -5 26 -25 26 l-25 0 0 -115z"/>
<path d="M5398 7419 c-18 -7 -28 -18 -28 -30 0 -17 3 -18 20 -9 31 17 94 9 98
-12 2 -12 -5 -19 -25 -23 -74 -16 -89 -22 -102 -47 -37 -65 38 -124 99 -79 30
21 30 21 30 1 0 -15 7 -20 26 -20 l26 0 -4 95 c-2 70 -7 98 -19 110 -20 21
-85 28 -121 14z m92 -123 c0 -33 -27 -58 -59 -54 -20 2 -27 9 -29 30 -3 23 1
28 25 34 15 3 33 7 38 9 21 7 25 4 25 -19z"/>
<path d="M5650 7412 c-119 -59 -51 -236 80 -207 20 4 30 13 30 25 0 15 -6 17
-39 13 -50 -7 -81 21 -81 72 0 51 31 79 81 72 33 -4 39 -2 39 13 0 34 -55 40
-110 12z"/>
<path d="M5980 7315 l0 -115 25 0 25 0 0 115 0 115 -25 0 -25 0 0 -115z"/>
<path d="M6120 7417 c-13 -7 -29 -24 -34 -39 -12 -34 4 -54 62 -79 31 -14 42
-24 40 -36 -3 -15 -14 -18 -56 -18 -43 1 -52 -2 -52 -17 0 -12 11 -19 34 -24
49 -9 94 4 113 32 23 36 4 70 -53 94 -33 15 -45 25 -42 37 3 14 13 18 51 17
38 0 47 3 47 17 0 28 -66 38 -110 16z"/>
<path d="M6324 7411 c-57 -35 -68 -127 -21 -178 41 -45 149 -40 155 8 3 19 1
22 -9 12 -21 -21 -86 -16 -110 8 -33 33 -19 44 64 47 l77 3 -6 27 c-18 86 -80
116 -150 73z m100 -43 c15 -24 5 -30 -53 -26 l-52 3 17 23 c19 27 71 27 88 0z"/>
<path d="M6650 7265 l0 -165 25 0 c24 0 25 2 25 64 l0 64 31 -15 c67 -33 133
19 133 106 0 63 -23 98 -70 107 -28 5 -42 2 -65 -15 -29 -21 -29 -21 -29 -1 0
15 -7 20 -25 20 l-25 0 0 -165z m158 92 c15 -31 8 -79 -15 -102 -19 -20 -57
-19 -77 1 -22 21 -21 92 1 116 26 28 74 20 91 -15z"/>
<path d="M7068 7418 c-18 -6 -28 -17 -28 -29 0 -16 3 -18 19 -9 30 16 91 13
98 -5 8 -22 1 -26 -54 -36 -54 -10 -69 -22 -78 -61 -10 -41 34 -83 78 -74 18
3 38 14 45 23 11 15 12 15 12 -5 0 -17 6 -22 25 -22 25 0 25 1 25 90 0 83 -2
93 -25 115 -26 27 -68 31 -117 13z m92 -127 c0 -36 -20 -53 -57 -49 -22 2 -29
9 -31 30 -3 23 1 28 25 34 15 3 33 7 38 9 22 7 25 4 25 -24z"/>
<path d="M7644 7421 c-38 -16 -64 -60 -64 -107 0 -88 89 -139 170 -97 64 33
75 138 20 188 -22 20 -95 29 -126 16z m92 -45 c14 -11 19 -26 19 -61 0 -52
-20 -75 -64 -75 -37 0 -61 27 -61 69 0 70 55 104 106 67z"/>
<path d="M7860 7315 l0 -115 25 0 c24 0 25 2 25 73 0 80 15 107 58 107 15 0
22 6 22 20 0 34 -30 37 -57 6 l-23 -27 0 25 c0 21 -5 26 -25 26 l-25 0 0 -115z"/>
<path d="M8030 7315 l0 -115 25 0 c25 0 25 1 25 83 0 88 8 107 47 107 32 0 43
-28 43 -114 0 -74 1 -76 25 -76 25 0 25 1 25 78 0 64 4 82 18 95 10 10 25 17
33 17 30 0 39 -24 39 -107 0 -82 0 -83 25 -83 25 0 25 1 25 90 0 84 -2 93 -26
117 -20 20 -31 24 -57 19 -17 -3 -38 -13 -46 -20 -14 -13 -19 -12 -40 5 -28
23 -47 24 -83 5 -24 -13 -28 -13 -28 0 0 8 -10 14 -25 14 l-25 0 0 -115z"/>
<path d="M8421 7242 c-8 -15 -7 -23 4 -32 21 -18 47 -4 43 22 -4 29 -34 35
-47 10z"/>
<path d="M5310 6772 c0 -41 -5 -73 -12 -81 -10 -11 -10 -13 0 -7 6 4 12 2 12
-3 0 -6 5 -11 10 -11 6 0 10 35 10 85 0 50 -4 85 -10 85 -6 0 -10 -29 -10 -68z"/>
<path d="M5540 6755 c0 -50 4 -85 10 -85 6 0 10 19 10 43 0 24 6 49 13 56 10
11 10 13 0 7 -9 -5 -13 3 -13 28 0 20 -4 36 -10 36 -6 0 -10 -35 -10 -85z"/>
<path d="M6030 6755 c0 -50 4 -85 10 -85 6 0 10 19 10 43 0 24 6 49 13 56 10
11 10 13 0 7 -9 -5 -13 3 -13 28 0 20 -4 36 -10 36 -6 0 -10 -35 -10 -85z"/>
<path d="M6564 6755 c0 -49 1 -71 3 -48 2 23 2 64 0 90 -2 26 -3 8 -3 -42z"/>
<path d="M7550 6754 c0 -51 4 -83 9 -76 8 13 4 152 -4 161 -3 2 -5 -36 -5 -85z"/>
<path d="M8084 6755 c0 -49 1 -71 3 -48 2 23 2 64 0 90 -2 26 -3 8 -3 -42z"/>
<path d="M9640 6754 c0 -51 4 -83 9 -76 8 13 4 152 -4 161 -3 2 -5 -36 -5 -85z"/>
<path d="M11120 6755 c0 -50 4 -85 10 -85 6 0 10 35 10 85 0 50 -4 85 -10 85
-6 0 -10 -35 -10 -85z"/>
<path d="M11613 6755 c0 -49 2 -70 4 -45 3 24 10 51 16 59 9 11 9 13 0 8 -8
-5 -13 5 -16 30 -2 21 -4 -2 -4 -52z"/>
<path d="M11854 6755 c0 -49 1 -71 3 -48 2 23 2 64 0 90 -2 26 -3 8 -3 -42z"/>
<path d="M4922 6748 l2 -83 5 70 6 70 29 -62 c26 -57 46 -80 46 -53 0 6 -4 10
-8 10 -5 0 -21 29 -37 65 -15 36 -31 65 -36 65 -5 0 -8 -37 -7 -82z"/>
<path d="M5054 6819 c-3 -6 -2 -14 4 -18 6 -4 13 -36 15 -71 3 -63 3 -62 5 18
2 76 -6 99 -24 71z"/>
<path d="M7033 6810 c-3 -11 -10 -20 -17 -20 -8 0 -7 -3 1 -8 6 -4 13 -32 16
-62 l3 -55 2 57 c2 44 6 58 20 61 15 4 15 5 -2 6 -13 1 -17 6 -13 21 3 11 3
20 0 20 -3 0 -7 -9 -10 -20z"/>
<path d="M8493 6775 c0 -33 2 -45 4 -27 2 18 2 45 0 60 -2 15 -4 0 -4 -33z"/>
<path d="M8612 6768 c-2 -59 1 -69 20 -82 30 -21 44 -20 68 4 16 16 20 32 18
83 l-1 62 -6 -68 c-6 -65 -17 -86 -47 -87 -29 0 -43 27 -47 90 l-3 65 -2 -67z"/>
<path d="M10663 6810 c-3 -11 -10 -20 -17 -20 -8 0 -7 -3 1 -8 6 -4 13 -32 16
-62 l3 -55 2 57 c2 44 6 58 20 61 15 4 15 5 -2 6 -13 1 -17 6 -13 21 3 11 3
20 0 20 -3 0 -7 -9 -10 -20z"/>
<path d="M10072 6794 c-7 -8 -8 -14 -3 -14 6 0 11 -23 13 -52 2 -32 8 -52 16
-54 7 -1 8 0 2 3 -5 2 -10 27 -10 54 0 40 3 49 18 50 13 0 14 2 2 6 -8 3 -17
9 -20 13 -3 4 -11 2 -18 -6z"/>
<path d="M10782 6794 c-7 -8 -8 -14 -2 -14 5 0 10 -22 10 -50 0 -27 2 -50 4
-50 2 0 13 -3 23 -6 17 -5 17 -5 1 6 -13 8 -18 24 -18 55 0 36 4 45 18 46 13
0 14 2 2 6 -8 3 -17 9 -20 13 -3 4 -11 2 -18 -6z"/>
<path d="M11332 6794 c-7 -8 -8 -14 -2 -14 5 0 10 -19 10 -43 0 -40 13 -67 33
-67 5 0 1 7 -7 16 -23 22 -22 94 2 95 13 0 14 2 2 6 -8 3 -17 9 -20 13 -3 4
-11 2 -18 -6z"/>
<path d="M5027 6755 c-24 -50 -20 -58 4 -12 11 22 19 41 17 43 -3 2 -12 -12
-21 -31z"/>
<path d="M5130 6780 c-11 -7 -8 -9 14 -7 27 2 30 -1 33 -32 2 -19 -3 -41 -10
-49 -8 -11 -8 -13 0 -9 6 4 14 1 16 -5 3 -7 6 12 6 43 1 43 -3 58 -15 63 -21
8 -26 7 -44 -4z"/>
<path d="M5270 6786 c0 -2 7 -7 16 -10 8 -3 12 -2 9 4 -6 10 -25 14 -25 6z"/>
<path d="M5418 6774 c32 -22 27 -34 -13 -34 -37 0 -43 7 -22 30 10 12 9 12 -5
1 -10 -7 -18 -26 -18 -41 0 -15 8 -34 18 -41 14 -11 15 -11 5 1 -24 26 -15 40
27 40 33 0 40 3 40 20 0 10 -9 24 -19 30 -30 15 -38 12 -13 -6z"/>
<path d="M5608 6774 c40 -28 20 -107 -23 -90 -9 3 -13 2 -10 -4 3 -6 12 -10
20 -10 43 0 64 89 26 110 -30 15 -38 12 -13 -6z"/>
<path d="M5672 6759 c6 -16 12 -28 14 -26 5 5 -13 57 -20 57 -3 0 0 -14 6 -31z"/>
<path d="M5742 6769 c-20 -52 -21 -71 -2 -30 11 24 18 46 15 49 -2 3 -8 -6
-13 -19z"/>
<path d="M5850 6721 c0 -61 -3 -72 -22 -85 -12 -9 -17 -16 -11 -16 29 0 43 32
43 101 0 38 -2 69 -5 69 -3 0 -5 -31 -5 -69z"/>
<path d="M6098 6774 c40 -28 20 -107 -23 -90 -9 3 -13 2 -10 -4 3 -6 12 -10
20 -10 43 0 64 89 26 110 -30 15 -38 12 -13 -6z"/>
<path d="M6250 6786 c0 -2 9 -6 20 -9 11 -3 18 -1 14 4 -5 9 -34 13 -34 5z"/>
<path d="M6378 6774 c32 -22 27 -34 -13 -34 -37 0 -43 7 -22 30 10 12 9 12 -5
1 -36 -27 -13 -101 30 -101 12 0 9 4 -8 13 -14 7 -26 20 -28 30 -3 14 4 17 37
17 29 0 41 4 41 14 0 17 -27 46 -43 46 -6 0 -1 -7 11 -16z"/>
<path d="M6455 6776 c-39 -28 -14 -106 34 -106 10 0 6 5 -9 13 -14 7 -26 20
-28 30 -3 14 4 17 37 17 45 0 49 6 25 36 -14 18 -15 18 -4 -3 10 -22 9 -23
-25 -23 -40 0 -45 12 -13 34 12 9 18 16 12 16 -6 0 -19 -6 -29 -14z"/>
<path d="M6601 6759 l-24 -31 33 -31 33 -32 -26 35 -26 35 26 27 c15 16 23 28
17 27 -5 0 -20 -14 -33 -30z"/>
<path d="M6685 6776 c-39 -28 -14 -106 34 -106 10 0 6 5 -9 13 -14 7 -26 20
-28 30 -3 14 4 17 37 17 45 0 49 6 25 36 -14 18 -15 18 -4 -3 10 -22 9 -23
-25 -23 -40 0 -45 12 -13 34 12 9 18 16 12 16 -6 0 -19 -6 -29 -14z"/>
<path d="M6790 6730 c0 -35 2 -61 5 -59 7 8 9 108 2 116 -4 3 -7 -22 -7 -57z"/>
<path d="M6825 6780 c-3 -5 -1 -10 4 -10 6 0 11 5 11 10 0 6 -2 10 -4 10 -3 0
-8 -4 -11 -10z"/>
<path d="M7233 6730 c0 -36 2 -50 4 -32 2 17 2 47 0 65 -2 17 -4 3 -4 -33z"/>
<path d="M7260 6780 c-13 -8 -12 -10 3 -10 9 0 17 5 17 10 0 12 -1 12 -20 0z"/>
<path d="M7370 6721 c0 -61 -3 -72 -22 -85 -12 -9 -17 -16 -11 -16 29 0 43 32
43 101 0 38 -2 69 -5 69 -3 0 -5 -31 -5 -69z"/>
<path d="M7618 6774 c24 -17 28 -44 10 -77 -10 -20 -10 -21 5 -8 32 26 12 101
-26 101 -6 0 -1 -7 11 -16z"/>
<path d="M7855 6776 c-39 -28 -14 -106 34 -106 10 0 6 5 -9 13 -14 7 -26 20
-28 30 -3 14 4 17 37 17 45 0 49 6 25 36 -14 18 -15 18 -4 -3 10 -22 9 -23
-25 -23 -40 0 -45 12 -13 34 12 9 18 16 12 16 -6 0 -19 -6 -29 -14z"/>
<path d="M7970 6770 c-11 -11 -20 -29 -20 -40 0 -22 33 -60 53 -60 6 0 3 6 -8
12 -21 12 -35 28 -35 41 0 4 18 7 40 7 33 0 40 3 40 19 0 11 -4 22 -9 25 -5 4
-7 -3 -4 -14 5 -17 0 -20 -31 -20 -40 0 -41 19 -3 38 12 6 16 11 10 11 -7 1
-22 -8 -33 -19z"/>
<path d="M8120 6760 l-21 -30 23 -29 c13 -17 27 -30 32 -30 6 -1 -3 13 -19 29
l-29 30 29 30 c16 17 24 30 18 30 -7 0 -21 -14 -33 -30z"/>
<path d="M8200 6770 c-11 -11 -20 -29 -20 -40 0 -22 33 -60 53 -60 6 0 3 6 -8
12 -21 12 -35 28 -35 41 0 4 18 7 40 7 33 0 40 3 40 19 0 11 -4 22 -9 25 -5 4
-7 -3 -4 -14 5 -17 0 -20 -31 -20 -40 0 -41 19 -3 38 12 6 16 11 10 11 -7 1
-22 -8 -33 -19z"/>
<path d="M8313 6730 c0 -36 2 -50 4 -32 2 17 2 47 0 65 -2 17 -4 3 -4 -33z"/>
<path d="M8340 6780 c-13 -8 -12 -10 3 -10 9 0 17 5 17 10 0 12 -1 12 -20 0z"/>
<path d="M8410 6786 c0 -2 7 -7 16 -10 8 -3 12 -2 9 4 -6 10 -25 14 -25 6z"/>
<path d="M8773 6783 c-22 -8 -14 -43 13 -55 17 -8 24 -18 21 -30 -3 -10 -1
-18 4 -18 21 0 8 41 -16 52 -31 14 -29 43 2 42 12 0 20 3 17 8 -6 9 -22 9 -41
1z"/>
<path d="M8908 6774 c32 -22 27 -34 -13 -34 -37 0 -43 7 -22 30 10 12 9 12 -5
1 -10 -7 -18 -26 -18 -41 0 -15 8 -34 18 -41 14 -11 15 -11 5 1 -24 26 -15 40
27 40 33 0 40 3 40 20 0 10 -9 24 -19 30 -30 15 -38 12 -13 -6z"/>
<path d="M9076 6780 c24 -9 31 -65 11 -89 -9 -11 -9 -13 0 -8 6 4 14 1 16 -5
3 -7 6 10 6 38 1 51 -11 74 -38 73 -11 0 -9 -3 5 -9z"/>
<path d="M9370 6777 c28 -14 39 -59 19 -83 -8 -10 -8 -14 0 -14 35 0 31 90 -4
104 -30 11 -41 6 -15 -7z"/>
<path d="M9453 6730 c0 -50 1 -55 4 -20 3 24 10 51 16 59 9 11 9 13 0 8 -6 -4
-14 -1 -16 5 -3 7 -5 -16 -4 -52z"/>
<path d="M9503 6772 c8 -9 17 -37 20 -62 l4 -45 1 46 c1 25 8 51 15 58 10 10
9 11 -4 6 -10 -4 -20 -2 -24 4 -3 6 -11 11 -17 11 -6 0 -4 -8 5 -18z"/>
<path d="M9573 6778 c10 -8 17 -32 20 -63 l3 -50 2 56 c2 44 -2 58 -14 63 -25
10 -29 7 -11 -6z"/>
<path d="M9708 6774 c24 -17 28 -44 10 -77 -10 -20 -10 -21 5 -8 32 26 12 101
-26 101 -6 0 -1 -7 11 -16z"/>
<path d="M9770 6730 c0 -33 4 -60 10 -60 6 0 10 27 10 60 0 33 -4 60 -10 60
-6 0 -10 -27 -10 -60z"/>
<path d="M9833 6730 c0 -50 1 -55 4 -20 3 24 10 51 16 59 9 11 9 13 0 8 -6 -4
-14 -1 -16 5 -3 7 -5 -16 -4 -52z"/>
<path d="M9887 6775 c16 -11 23 -28 26 -63 l3 -47 2 47 c2 46 -15 78 -41 78
-6 0 -2 -7 10 -15z"/>
<path d="M10153 6730 c0 -36 2 -50 4 -32 2 17 2 47 0 65 -2 17 -4 3 -4 -33z"/>
<path d="M10332 6730 l1 -65 7 50 c4 28 3 57 -1 65 -5 9 -8 -11 -7 -50z"/>
<path d="M10393 6772 c8 -9 17 -37 20 -62 l4 -45 1 51 c2 47 -10 74 -32 74 -5
0 -2 -8 7 -18z"/>
<path d="M11200 6786 c0 -2 9 -6 20 -9 11 -3 18 -1 14 4 -5 9 -34 13 -34 5z"/>
<path d="M11663 6779 c12 -7 17 -23 17 -59 0 -31 4 -50 11 -50 8 0 10 17 7 51
-5 47 -18 69 -43 69 -5 -1 -2 -5 8 -11z"/>
<path d="M11788 6774 c32 -22 27 -34 -13 -34 -37 0 -43 7 -22 30 10 12 9 12
-5 1 -36 -27 -13 -101 30 -101 12 0 9 4 -8 13 -14 7 -26 20 -28 30 -3 14 4 17
37 17 29 0 41 4 41 14 0 17 -27 46 -43 46 -6 0 -1 -7 11 -16z"/>
<path d="M11912 6705 c1 -49 3 -73 5 -52 3 25 8 35 16 31 8 -5 8 -3 0 7 -7 7
-13 25 -13 39 0 14 6 32 13 39 8 9 8 12 0 7 -6 -3 -14 0 -16 6 -3 7 -5 -27 -5
-77z"/>
<path d="M11968 6778 c31 -15 31 -71 0 -92 -12 -9 -18 -16 -12 -16 43 0 64 80
29 106 -11 8 -24 14 -29 13 -6 0 -1 -5 12 -11z"/>
<path d="M12091 6780 c0 -8 6 -28 14 -45 17 -39 18 -21 0 25 -7 19 -14 28 -14
20z"/>
<path d="M12161 6759 c-6 -18 -9 -34 -7 -36 2 -2 9 10 15 28 6 18 9 34 7 36
-2 2 -9 -10 -15 -28z"/>
<path d="M12220 6770 c-11 -11 -20 -29 -20 -40 0 -23 33 -60 55 -60 22 0 55
37 55 60 0 23 -33 60 -55 60 -8 0 -24 -9 -35 -20z m64 -6 c9 -8 16 -24 16 -34
0 -22 -25 -50 -45 -50 -20 0 -45 28 -45 50 0 22 25 50 45 50 7 0 21 -7 29 -16z"/>
<path d="M12342 6743 c-2 -43 2 -54 17 -63 30 -15 38 -12 14 5 -16 11 -23 28
-26 63 l-3 47 -2 -52z"/>
<path d="M12418 6743 c-3 -27 -1 -55 3 -63 5 -9 9 10 9 48 0 74 -6 81 -12 15z"/>
<path d="M5236 6764 c-13 -33 -6 -73 13 -84 30 -15 38 -12 13 6 -24 17 -30 62
-10 82 8 8 8 12 1 12 -6 0 -14 -7 -17 -16z"/>
<path d="M5900 6755 c-16 -43 11 -85 53 -85 7 0 1 6 -13 13 -28 14 -39 59 -19
83 8 10 8 14 0 14 -6 0 -16 -11 -21 -25z"/>
<path d="M5978 6770 c6 -8 12 -26 12 -40 0 -14 -6 -32 -12 -40 -11 -12 -10
-12 5 -1 9 7 17 26 17 41 0 15 -8 34 -17 41 -15 11 -16 11 -5 -1z"/>
<path d="M6224 6768 c-4 -6 7 -22 26 -38 22 -18 30 -31 25 -40 -5 -9 -4 -11 3
-6 21 13 13 35 -18 51 -19 10 -27 20 -24 30 7 18 -2 20 -12 3z"/>
<path d="M6867 6773 c-15 -14 -5 -33 24 -48 20 -11 29 -21 25 -31 -3 -9 -1
-12 4 -9 18 11 10 34 -17 47 -16 8 -27 21 -27 31 2 19 1 20 -9 10z"/>
<path d="M7102 6768 c-21 -21 -12 -88 11 -88 7 0 7 4 -1 12 -7 7 -12 24 -12
38 0 14 5 31 12 38 7 7 10 12 7 12 -3 0 -10 -5 -17 -12z"/>
<path d="M7168 6768 c16 -16 15 -60 0 -78 -11 -12 -10 -12 5 -1 25 20 21 91
-6 91 -7 0 -7 -4 1 -12z"/>
<path d="M7420 6755 c-16 -43 11 -85 53 -85 7 0 1 6 -13 13 -28 14 -39 59 -19
83 8 10 8 14 0 14 -6 0 -16 -11 -21 -25z"/>
<path d="M7498 6770 c6 -8 12 -26 12 -40 0 -14 -6 -32 -12 -40 -11 -12 -10
-12 5 -1 9 7 17 26 17 41 0 15 -8 34 -17 41 -15 11 -16 11 -5 -1z"/>
<path d="M7747 6773 c-15 -14 -5 -33 24 -48 20 -11 29 -21 25 -31 -3 -9 -1
-12 4 -9 18 11 10 34 -17 47 -16 8 -27 21 -27 31 2 19 1 20 -9 10z"/>
<path d="M8387 6773 c-15 -14 -6 -33 23 -48 21 -11 28 -20 23 -33 -5 -14 -3
-15 7 -5 16 15 0 38 -32 49 -13 4 -18 12 -15 25 5 20 4 23 -6 12z"/>
<path d="M9212 6755 c-22 -47 29 -108 62 -75 8 8 7 10 -7 4 -37 -14 -66 53
-35 84 7 7 8 12 2 12 -6 0 -16 -11 -22 -25z"/>
<path d="M9322 6768 c-20 -20 -14 -65 10 -82 12 -9 27 -16 33 -16 5 1 -2 8
-17 16 -30 15 -35 41 -18 75 12 22 9 24 -8 7z"/>
<path d="M10017 6744 c2 -20 -2 -43 -9 -52 -8 -10 -9 -13 -1 -9 6 4 14 1 16
-5 3 -7 6 10 6 39 1 28 -3 54 -8 57 -4 3 -6 -11 -4 -30z"/>
<path d="M10200 6755 c-16 -43 11 -85 53 -85 7 0 1 6 -13 13 -28 14 -39 59
-19 83 8 10 8 14 0 14 -6 0 -16 -11 -21 -25z"/>
<path d="M10278 6770 c6 -8 12 -26 12 -40 0 -14 -6 -32 -12 -40 -11 -12 -10
-12 5 -1 9 7 17 26 17 41 0 15 -8 34 -17 41 -15 11 -16 11 -5 -1z"/>
<path d="M10520 6755 c-16 -43 11 -85 53 -85 7 0 1 6 -13 13 -28 14 -39 59
-19 83 8 10 8 14 0 14 -6 0 -16 -11 -21 -25z"/>
<path d="M10598 6770 c6 -8 12 -26 12 -40 0 -14 -6 -32 -12 -40 -11 -12 -10
-12 5 -1 9 7 17 26 17 41 0 15 -8 34 -17 41 -15 11 -16 11 -5 -1z"/>
<path d="M10860 6755 c-16 -43 11 -85 53 -85 7 0 1 6 -13 13 -28 14 -39 59
-19 83 8 10 8 14 0 14 -6 0 -16 -11 -21 -25z"/>
<path d="M10938 6770 c6 -8 12 -26 12 -40 0 -14 -6 -32 -12 -40 -11 -12 -10
-12 5 -1 9 7 17 26 17 41 0 15 -8 34 -17 41 -15 11 -16 11 -5 -1z"/>
<path d="M11002 6768 c-21 -21 -12 -88 11 -88 7 0 7 4 -1 12 -7 7 -12 24 -12
38 0 14 5 31 12 38 7 7 10 12 7 12 -3 0 -10 -5 -17 -12z"/>
<path d="M11068 6768 c16 -16 15 -60 0 -78 -11 -12 -10 -12 5 -1 25 20 21 91
-6 91 -7 0 -7 -4 1 -12z"/>
<path d="M11174 6768 c-4 -6 7 -22 26 -38 22 -18 30 -31 25 -40 -5 -9 -4 -11
3 -6 21 13 13 35 -18 51 -19 10 -27 20 -24 30 7 18 -2 20 -12 3z"/>
<path d="M11422 6768 c-21 -21 -12 -88 11 -88 7 0 7 4 -1 12 -7 7 -12 24 -12
38 0 14 5 31 12 38 7 7 10 12 7 12 -3 0 -10 -5 -17 -12z"/>
<path d="M11488 6768 c16 -16 15 -60 0 -78 -11 -12 -10 -12 5 -1 25 20 21 91
-6 91 -7 0 -7 -4 1 -12z"/>
<path d="M5119 6724 c-14 -18 -3 -45 22 -51 8 -3 7 0 -3 7 -10 6 -18 17 -18
25 0 8 8 19 18 24 9 6 12 11 6 11 -6 0 -17 -7 -25 -16z"/>
<path d="M9037 6733 c-13 -12 -7 -51 9 -57 24 -9 31 -7 12 5 -10 5 -18 16 -18
24 0 8 8 19 18 24 14 9 15 10 1 11 -9 0 -19 -3 -22 -7z"/>
<path d="M9957 6733 c-13 -12 -7 -51 9 -57 24 -9 31 -7 12 5 -10 5 -18 18 -18
29 0 10 8 21 18 23 14 4 14 5 1 6 -9 0 -19 -2 -22 -6z"/>
<path d="M17465 6722 c-67 -1 -122 -8 -140 -16 -19 -9 -88 -17 -184 -21 l-154
-8 -42 -91 c-128 -276 -162 -540 -80 -622 l24 -24 276 0 c151 0 275 -3 275 -7
0 -11 -104 -724 -186 -1280 l-68 -463 -1843 0 c-1836 0 -1843 0 -1843 -20 0
-20 7 -20 5615 -20 5602 0 5615 0 5615 20 0 20 -8 20 -1591 20 -876 0 -1594 1
-1596 3 -2 3 -53 335 -112 740 -60 405 -111 740 -114 744 -3 4 -20 8 -39 7
-65 -2 -64 -15 71 -794 67 -381 119 -695 118 -696 -4 -5 -548 -7 -550 -3 -1 2
-1 50 1 106 l3 102 34 11 c27 9 35 18 40 43 2 18 30 286 60 597 30 311 57 579
60 596 5 30 4 32 -34 38 -56 9 -71 34 -71 122 0 66 2 74 26 93 26 20 37 21
440 21 228 0 414 2 414 3 0 2 14 71 30 152 17 82 29 149 28 150 -2 1 -39 21
-83 45 -44 24 -129 75 -190 113 l-110 69 -170 -40 c-93 -22 -172 -38 -174 -36
-4 4 -30 167 -31 191 0 9 33 13 118 15 l117 3 3 59 c2 32 -1 63 -7 69 -9 9
-3623 18 -3956 9z m905 -166 c0 -14 -3 -27 -7 -29 -7 -4 -256 38 -278 47 -5 3
56 5 138 5 l147 1 0 -24z m2690 17 c0 -5 9 -57 19 -118 10 -60 17 -113 15
-116 -2 -4 -20 -10 -41 -14 -73 -13 -391 -123 -486 -168 -128 -60 -195 -110
-218 -161 -45 -104 -82 -562 -95 -1211 l-7 -311 26 -17 c15 -10 27 -24 27 -31
0 -8 -25 -37 -55 -64 -59 -54 -169 -104 -258 -117 -26 -4 -64 -18 -83 -31 -30
-21 -47 -24 -124 -24 -64 0 -89 3 -88 12 2 6 -19 24 -47 40 -47 25 -56 27
-130 22 -94 -7 -134 2 -258 57 -48 21 -90 39 -93 39 -14 0 23 -35 64 -61 39
-25 40 -27 20 -33 -76 -20 -178 1 -320 67 -74 35 -78 35 -88 17 -12 -22 -13
-60 -2 -76 14 -22 54 -35 136 -44 46 -6 99 -17 117 -25 30 -13 -20 -14 -484
-15 l-519 0 6 28 c3 15 53 302 111 637 58 336 108 621 111 635 6 22 8 20 24
-25 39 -113 187 -389 382 -712 l109 -182 70 -16 c54 -12 79 -13 110 -5 44 12
43 8 24 110 -7 41 -12 76 -10 78 2 2 22 -27 44 -65 61 -100 62 -101 137 -119
55 -12 77 -13 107 -4 20 6 37 15 37 20 0 5 -16 95 -35 201 -155 840 -311 1419
-426 1580 -30 43 -92 69 -255 109 -77 19 -140 35 -142 36 -1 1 0 20 4 43 l7
41 1278 0 c704 0 1279 -3 1279 -7z m-2920 -662 c14 -9 44 -46 68 -81 41 -60
43 -66 37 -114 -4 -28 -45 -307 -92 -621 -73 -493 -132 -894 -133 -902 0 -2
-171 -3 -380 -3 -313 0 -380 2 -380 14 0 13 225 1318 275 1590 14 77 25 140
25 140 0 1 125 0 277 -2 246 -3 281 -5 303 -21z m1277 -1717 c-3 -3 -12 -4
-19 -1 -8 3 -5 6 6 6 11 1 17 -2 13 -5z"/>
<path d="M12140 6701 c0 -7 -5 -9 -12 -5 -8 5 -9 2 -5 -10 4 -10 2 -26 -3 -37
-6 -10 -8 -19 -5 -19 9 0 37 71 31 78 -3 3 -6 0 -6 -7z"/>
<path d="M8485 6691 c-3 -5 -1 -12 5 -16 5 -3 10 1 10 9 0 18 -6 21 -15 7z"/>
<path d="M5700 6671 c0 -11 -10 -27 -22 -35 -12 -9 -18 -16 -13 -16 16 0 31
13 44 37 14 27 14 33 1 33 -5 0 -10 -9 -10 -19z"/>
<path d="M6868 6678 c5 -5 16 -8 23 -6 8 3 3 7 -10 11 -17 4 -21 3 -13 -5z"/>
<path d="M7748 6678 c5 -5 16 -8 23 -6 8 3 3 7 -10 11 -17 4 -21 3 -13 -5z"/>
<path d="M8388 6678 c5 -5 16 -8 23 -6 8 3 3 7 -10 11 -17 4 -21 3 -13 -5z"/>
<path d="M5772 6458 c-7 -7 -12 -18 -12 -25 0 -7 -6 -13 -12 -13 -10 0 -10 -2
-1 -8 6 -4 13 -32 16 -62 l3 -55 2 57 c2 44 6 58 20 61 16 4 16 5 0 6 -10 0
-18 8 -18 16 0 7 8 19 18 24 9 6 12 11 7 11 -6 0 -16 -5 -23 -12z"/>
<path d="M5342 6424 c-7 -8 -8 -14 -2 -14 5 0 10 -19 10 -43 0 -40 13 -67 33
-67 5 0 1 7 -7 16 -23 22 -22 94 2 95 13 0 14 2 2 6 -8 3 -17 9 -20 13 -3 4
-11 2 -18 -6z"/>
<path d="M6952 6424 c-7 -8 -8 -14 -3 -14 6 0 11 -23 13 -52 2 -32 8 -52 16
-54 7 -1 8 0 2 3 -5 2 -10 27 -10 54 0 40 3 49 18 50 13 0 14 2 2 6 -8 3 -17
9 -20 13 -3 4 -11 2 -18 -6z"/>
<path d="M7272 6424 c-7 -8 -8 -14 -3 -14 6 0 11 -23 13 -52 2 -32 8 -52 16
-54 7 -1 8 0 2 3 -5 2 -10 27 -10 54 0 40 3 49 18 50 13 0 14 2 2 6 -8 3 -17
9 -20 13 -3 4 -11 2 -18 -6z"/>
<path d="M4922 6335 c1 -49 3 -73 5 -52 3 25 8 35 16 31 8 -5 8 -3 0 7 -7 7
-13 25 -13 39 0 14 6 32 13 39 8 9 8 12 0 7 -6 -3 -14 0 -16 6 -3 7 -5 -27 -5
-77z"/>
<path d="M4978 6408 c31 -15 31 -71 0 -92 -12 -9 -18 -16 -12 -16 43 0 64 80
29 106 -11 8 -24 14 -29 13 -6 0 -1 -5 12 -11z"/>
<path d="M5050 6360 c0 -35 2 -61 5 -59 7 8 9 108 2 116 -4 3 -7 -22 -7 -57z"/>
<path d="M5085 6410 c-3 -5 -1 -10 4 -10 6 0 11 5 11 10 0 6 -2 10 -4 10 -3 0
-8 -4 -11 -10z"/>
<path d="M5166 6410 c24 -9 31 -65 11 -89 -9 -11 -9 -13 0 -8 6 4 14 1 16 -5
3 -7 6 10 6 38 1 51 -11 74 -38 73 -11 0 -9 -3 5 -9z"/>
<path d="M5423 6360 c0 -36 2 -50 4 -32 2 17 2 47 0 65 -2 17 -4 3 -4 -33z"/>
<path d="M5585 6406 c-39 -28 -14 -106 34 -106 10 0 6 5 -9 13 -14 7 -26 20
-28 30 -3 14 4 17 37 17 45 0 49 6 25 36 -14 18 -15 18 -4 -3 10 -22 9 -23
-25 -23 -40 0 -45 12 -13 34 12 9 18 16 12 16 -6 0 -19 -6 -29 -14z"/>
<path d="M5950 6360 c0 -33 4 -60 10 -60 6 0 10 27 10 60 0 33 -4 60 -10 60
-6 0 -10 -27 -10 -60z"/>
<path d="M5985 6410 c-3 -5 1 -10 9 -10 9 0 16 5 16 10 0 6 -4 10 -9 10 -6 0
-13 -4 -16 -10z"/>
<path d="M6083 6409 c3 -8 14 -38 23 -68 l18 -53 -23 -19 c-13 -11 -19 -19
-15 -19 18 0 32 16 48 54 19 47 20 56 3 32 -12 -17 -15 -14 -27 28 -7 26 -17
49 -23 53 -5 3 -7 0 -4 -8z"/>
<path d="M6165 6409 c-4 -6 -5 -12 -2 -15 2 -3 7 2 10 11 7 17 1 20 -8 4z"/>
<path d="M6331 6378 c-1 -46 16 -78 42 -78 6 0 2 6 -8 14 -12 8 -21 32 -26 62
l-6 49 -2 -47z"/>
<path d="M6410 6377 c0 -24 -6 -49 -12 -56 -9 -9 -9 -12 -1 -7 6 3 14 0 16 -6
3 -7 6 15 6 50 1 34 -1 62 -4 62 -3 0 -5 -19 -5 -43z"/>
<path d="M6462 6360 c1 -59 2 -61 7 -20 5 34 12 47 29 55 12 5 22 13 22 17 0
13 -17 9 -31 -8 -12 -14 -14 -14 -20 3 -4 10 -7 -11 -7 -47z"/>
<path d="M6602 6360 l1 -65 7 50 c4 28 3 57 -1 65 -5 9 -8 -11 -7 -50z"/>
<path d="M6663 6402 c8 -9 17 -37 20 -62 l4 -45 1 51 c2 47 -10 74 -32 74 -5
0 -2 -8 7 -18z"/>
<path d="M6740 6400 c-11 -11 -20 -29 -20 -40 0 -22 33 -60 53 -60 6 0 3 6 -8
12 -21 12 -35 28 -35 41 0 4 18 7 40 7 33 0 40 3 40 19 0 11 -4 22 -9 25 -5 4
-7 -3 -4 -14 5 -17 0 -20 -31 -20 -40 0 -41 19 -3 38 12 6 16 11 10 11 -7 1
-22 -8 -33 -19z"/>
<path d="M6840 6417 c0 -4 7 -19 16 -32 15 -23 15 -27 0 -50 -9 -13 -16 -28
-16 -32 0 -4 8 5 19 20 l18 28 22 -28 22 -28 -18 35 c-10 19 -21 37 -24 40 -3
3 -13 16 -22 30 -9 13 -17 21 -17 17z"/>
<path d="M6900 6400 c-6 -11 -8 -20 -6 -20 3 0 10 9 16 20 6 11 8 20 6 20 -3
0 -10 -9 -16 -20z"/>
<path d="M7093 6360 c0 -36 2 -50 4 -32 2 17 2 47 0 65 -2 17 -4 3 -4 -33z"/>
<path d="M7142 6360 l1 -65 7 50 c4 28 3 57 -1 65 -5 9 -8 -11 -7 -50z"/>
<path d="M7203 6402 c8 -9 17 -37 20 -62 l4 -45 1 51 c2 47 -10 74 -32 74 -5
0 -2 -8 7 -18z"/>
<path d="M7398 6404 c32 -22 27 -34 -13 -34 -37 0 -43 7 -22 30 10 12 9 12 -5
1 -10 -7 -18 -26 -18 -41 0 -15 8 -34 18 -41 14 -11 15 -11 5 1 -24 26 -15 40
27 40 33 0 40 3 40 20 0 10 -9 24 -19 30 -30 15 -38 12 -13 -6z"/>
<path d="M7460 6360 c0 -33 4 -60 10 -60 6 0 10 27 10 60 0 33 -4 60 -10 60
-6 0 -10 -27 -10 -60z"/>
<path d="M7495 6410 c-3 -5 1 -10 9 -10 9 0 16 5 16 10 0 6 -4 10 -9 10 -6 0
-13 -4 -16 -10z"/>
<path d="M7531 6419 c-1 -10 31 -104 39 -112 4 -5 17 17 30 48 12 31 20 58 17
61 -3 3 -13 -19 -23 -48 l-17 -53 -14 35 c-20 50 -32 76 -32 69z"/>
<path d="M7653 6360 c0 -36 2 -50 4 -32 2 17 2 47 0 65 -2 17 -4 3 -4 -33z"/>
<path d="M7758 6404 c32 -22 27 -34 -13 -34 -37 0 -43 7 -22 30 10 12 9 12 -5
1 -36 -27 -13 -101 30 -101 12 0 9 4 -8 13 -14 7 -26 20 -28 30 -3 14 4 17 37
17 29 0 41 4 41 14 0 17 -27 46 -43 46 -6 0 -1 -7 11 -16z"/>
<path d="M7811 6417 c-3 -22 31 -117 40 -112 5 4 9 11 9 17 0 6 -3 8 -7 4 -4
-3 -15 17 -24 46 -9 29 -17 49 -18 45z"/>
<path d="M7876 6404 c-3 -9 -4 -19 -1 -22 3 -3 5 1 6 9 0 8 4 6 9 -6 6 -13 9
-15 9 -5 0 8 -3 21 -8 28 -6 11 -10 10 -15 -4z"/>
<path d="M7946 6405 c-3 -9 -6 -22 -5 -28 0 -7 5 -1 10 12 5 13 8 26 5 28 -2
2 -6 -3 -10 -12z"/>
<path d="M5242 6385 c-22 -47 29 -108 62 -75 8 8 7 10 -7 4 -37 -14 -66 53
-35 84 7 7 8 12 2 12 -6 0 -16 -11 -22 -25z"/>
<path d="M5477 6403 c-15 -14 -5 -33 24 -48 20 -11 29 -21 25 -31 -3 -9 -1
-12 4 -9 18 11 10 34 -17 47 -16 8 -27 21 -27 31 2 19 1 20 -9 10z"/>
<path d="M5820 6385 c-16 -43 11 -85 53 -85 7 0 1 6 -13 13 -28 14 -39 59 -19
83 8 10 8 14 0 14 -6 0 -16 -11 -21 -25z"/>
<path d="M5898 6400 c6 -8 12 -26 12 -40 0 -14 -6 -32 -12 -40 -11 -12 -10
-12 5 -1 9 7 17 26 17 41 0 15 -8 34 -17 41 -15 11 -16 11 -5 -1z"/>
<path d="M6200 6385 c-16 -43 11 -85 53 -85 7 0 1 6 -13 13 -28 14 -39 59 -19
83 8 10 8 14 0 14 -6 0 -16 -11 -21 -25z"/>
<path d="M6278 6400 c6 -8 12 -26 12 -40 0 -14 -6 -32 -12 -40 -11 -12 -10
-12 5 -1 9 7 17 26 17 41 0 15 -8 34 -17 41 -15 11 -16 11 -5 -1z"/>
<path d="M5127 6363 c-13 -12 -7 -51 9 -57 24 -9 31 -7 12 5 -10 5 -18 16 -18
24 0 8 8 19 18 24 14 9 15 10 1 11 -9 0 -19 -3 -22 -7z"/>
<path d="M7861 6354 c0 -11 3 -14 6 -6 3 7 2 16 -1 19 -3 4 -6 -2 -5 -13z"/>
<path d="M7901 6344 c0 -11 3 -14 6 -6 3 7 2 16 -1 19 -3 4 -6 -2 -5 -13z"/>
<path d="M7931 6344 c0 -11 3 -14 6 -6 3 7 2 16 -1 19 -3 4 -6 -2 -5 -13z"/>
<path d="M7980 6314 c0 -8 5 -12 10 -9 6 4 8 11 5 16 -9 14 -15 11 -15 -7z"/>
<path d="M5478 6308 c5 -5 16 -8 23 -6 8 3 3 7 -10 11 -17 4 -21 3 -13 -5z"/>
<path d="M7910 6310 c0 -5 5 -10 10 -10 6 0 10 5 10 10 0 6 -4 10 -10 10 -5 0
-10 -4 -10 -10z"/>
<path d="M6727 5742 c-15 -16 -17 -52 -17 -299 0 -258 1 -281 18 -296 17 -16
90 -17 849 -17 791 0 831 1 846 18 15 16 17 52 17 299 0 258 -1 281 -18 296
-17 16 -90 17 -849 17 -791 0 -831 -1 -846 -18z m403 -257 c0 -11 -8 -13 -30
-9 -25 5 -31 2 -41 -19 -8 -18 -8 -30 0 -46 13 -24 41 -28 41 -6 0 8 -7 15
-15 15 -8 0 -15 5 -15 10 0 6 16 10 35 10 32 0 35 -3 35 -29 0 -31 -14 -41
-60 -41 -38 0 -60 24 -60 65 0 24 7 39 22 49 29 21 88 21 88 1z m50 -50 c0
-51 -3 -65 -15 -65 -12 0 -15 14 -15 65 0 51 3 65 15 65 12 0 15 -14 15 -65z
m160 40 c0 -20 5 -25 25 -25 20 0 25 5 25 25 0 16 6 25 15 25 12 0 15 -14 15
-65 0 -51 -3 -65 -15 -65 -10 0 -15 10 -15 30 0 25 -4 30 -25 30 -21 0 -25 -5
-25 -30 0 -23 -4 -30 -20 -30 -18 0 -20 7 -20 55 0 48 -2 55 -20 55 -18 0 -20
-7 -20 -55 0 -42 -3 -55 -15 -55 -12 0 -15 13 -15 55 0 48 -2 55 -20 55 -11 0
-20 5 -20 10 0 6 32 10 75 10 73 0 75 -1 75 -25z m130 -17 c0 -24 4 -49 9 -57
16 -25 31 -1 31 50 0 42 3 49 20 49 17 0 20 -7 20 -49 0 -57 -18 -81 -59 -81
-39 0 -51 17 -51 77 0 40 4 53 15 53 11 0 15 -11 15 -42z m188 15 c2 -14 -2
-23 -10 -23 -8 0 -6 -4 5 -11 20 -12 22 -40 5 -57 -7 -7 -31 -12 -55 -12 l-43
0 0 66 0 65 48 -3 c40 -3 47 -6 50 -25z m262 17 c0 -5 -9 -10 -20 -10 -18 0
-20 -7 -20 -55 0 -42 -3 -55 -15 -55 -11 0 -15 13 -15 54 l0 54 -45 0 c-50 -1
-60 -18 -20 -36 29 -13 35 -56 9 -66 -31 -12 -74 -7 -74 9 0 11 7 14 24 9 36
-9 41 13 6 31 -31 16 -39 42 -18 63 15 15 188 17 188 2z m91 -45 c23 -66 23
-75 -1 -75 -11 0 -20 7 -20 15 0 8 -9 15 -19 15 -10 0 -21 -7 -25 -15 -3 -8
-14 -15 -25 -15 -21 0 -21 4 18 103 18 46 50 33 72 -28z m123 33 c8 -13 6 -21
-6 -35 -15 -17 -15 -20 4 -43 19 -23 19 -25 3 -28 -10 -3 -28 8 -41 25 l-23
28 -1 -27 c0 -18 -5 -28 -15 -28 -12 0 -15 14 -15 66 l0 65 41 -3 c26 -2 46
-10 53 -20z"/>
<path d="M7600 5465 c0 -8 5 -15 10 -15 6 0 10 7 10 15 0 8 -4 15 -10 15 -5 0
-10 -7 -10 -15z"/>
<path d="M7600 5410 c0 -13 5 -20 13 -17 6 2 12 10 12 17 0 7 -6 15 -12 18 -8
2 -13 -5 -13 -18z"/>
<path d="M7960 5436 c0 -9 5 -16 10 -16 6 0 10 4 10 9 0 6 -4 13 -10 16 -5 3
-10 -1 -10 -9z"/>
<path d="M8070 5460 c0 -13 5 -20 13 -17 6 2 12 10 12 17 0 7 -6 15 -12 18 -8
2 -13 -5 -13 -18z"/>
<path d="M6358 3 c3500 -2 9224 -2 12720 0 3496 1 633 2 -6363 2 -6996 0
-9857 -1 -6357 -2z"/>
</g>
</svg>
